HIERARCHY
ROOT ui
{
	 OFFSET 0 0 0
	 CHANNELS 3 XPosition YPosition Z Position
	 EndSite
	 {
	 OFFSET 0 -1 0
	 }
}
ROOT li
{
	 OFFSET 0 0 0
	 CHANNELS 3 XPosition YPosition Z Position
	 EndSite
	 {
	 OFFSET 0 -1 0
	 }
}
ROOT ul
{
	 OFFSET 0 0 0
	 CHANNELS 3 XPosition YPosition Z Position
	 EndSite
	 {
	 OFFSET 0 -1 0
	 }
}
ROOT ll
{
	 OFFSET 0 0 0
	 CHANNELS 3 XPosition YPosition Z Position
	 EndSite
	 {
	 OFFSET 0 -1 0
	 }
}
ROOT tt
{
	 OFFSET 0 0 0
	 CHANNELS 3 XPosition YPosition Z Position
	 EndSite
	 {
	 OFFSET 0 -1 0
	 }
}
ROOT tb
{
	 OFFSET 0 0 0
	 CHANNELS 3 XPosition YPosition Z Position
	 EndSite
	 {
	 OFFSET 0 -1 0
	 }
}
ROOT td
{
	 OFFSET 0 0 0
	 CHANNELS 3 XPosition YPosition Z Position
	 EndSite
	 {
	 OFFSET 0 -1 0
	 }
}
ROOT v
{
	 OFFSET 0 0 0
	 CHANNELS 3 XPosition YPosition Z Position
	 EndSite
	 {
	 OFFSET 0 -1 0
	 }
}
ROOT bn
{
	 OFFSET 0 0 0
	 CHANNELS 3 XPosition YPosition Z Position
	 EndSite
	 {
	 OFFSET 0 -1 0
	 }
}
MOTION
Frames: 10
Frame Time: 0.002
0.0016744960546493531	4.6643900871276854E-4	0		0.5025802307128906	-2.387056640625	0		-1.0069165649414062	0.39040106201171876	0		-0.7454764404296875	-2.50102392578125	0		1.7348746337890626	-0.4368780517578125	0		3.341245849609375	-0.5150869140625	0		4.45688232421875	-0.3349459228515625	0		5.873087890625	0.1943751678466797	0		-0.2098914337158203	5.9305693359375	0		
-0.05503904724121094	-0.002057982921600342	0		0.48482122802734373	-2.3929296875	0		-1.0066029663085938	0.39037939453125	0		-0.66130224609375	-2.51479052734375	0		1.74012890625	-0.4429637451171875	0		3.353410888671875	-0.531245849609375	0		4.4670576171875	-0.3500953369140625	0		5.85833740234375	0.19630223083496093	0		-0.23973098754882813	5.90880810546875	0		
0.0062949609756469726	-0.0036425619125366212	0		0.49814083862304687	-2.396089111328125	0		-1.06922900390625	0.39389151000976563	0		-0.7179178466796875	-2.510331298828125	0		1.7404744873046876	-0.4430074157714844	0		3.371543212890625	-0.5554469604492187	0		4.47233203125	-0.35818130493164063	0		5.87623095703125	0.14568014526367187	0		-0.27730813598632814	5.91809912109375	0		
0.013738252639770509	0.0032345829010009767	0		0.5025785522460937	-2.39218115234375	0		-0.9858097534179687	0.39808740234375	0		-0.6415438232421875	-2.5140703125	0		1.7408599853515625	-0.4430530090332031	0		3.37309765625	-0.5364879150390625	0		4.4677880859375	-0.35015924072265625	0		5.87521044921875	0.18202293395996094	0		-0.2068834991455078	5.9284169921875	0		
0.0031340389251708982	2.551890015602112E-4	0		0.5170497436523438	-2.391372802734375	0		-1.034392822265625	0.39842608642578126	0		-0.734898681640625	-2.493329345703125	0		1.7382542724609376	-0.4470733642578125	0		3.36534375	-0.5574354858398437	0		4.46910107421875	-0.36316775512695315	0		5.88043017578125	0.16119871520996093	0		-0.20953669738769531	5.93136279296875	0		
0.011589695930480957	-9.080479741096496E-4	0		0.5155588989257812	-2.393434814453125	0		-0.9949398803710937	0.39796319580078127	0		-0.6535044555664062	-2.5091533203125	0		1.772650146484375	-0.45642010498046875	0		3.37175244140625	-0.5654937744140625	0		4.4714521484375	-0.37716204833984374	0		5.88076513671875	0.16130203247070313	0		-0.20922552490234375	5.93126416015625	0		
8.098100125789642E-5	-0.0029116909503936767	0		0.4802394409179688	-2.3832109375	0		-1.0624515380859374	0.397415283203125	0		-0.7238361206054688	-2.50066357421875	0		1.7321845703125	-0.4551085205078125	0		3.3851396484375	-0.5815991821289063	0		4.48297314453125	-0.37721234130859377	0		5.8854560546875	0.17348611450195311	0		-0.20892332458496093	5.93114794921875	0		
0.007692786216735839	0.0039013869762420652	0		0.4918499755859375	-2.388411376953125	0		-1.0178759765625	0.4018595886230469	0		-0.7191417236328125	-2.496855712890625	0		1.73275537109375	-0.4551588134765625	0		3.382829345703125	-0.5685519409179688	0		4.477470703125	-0.3850903625488281	0		5.87799609375	0.1704190673828125	0		-0.20863038635253905	5.93101318359375	0		
0.013240104675292968	-0.0012832319736480714	0		0.49659942626953124	-2.384562744140625	0		-1.051269775390625	0.4059595031738281	0		-0.7164038696289062	-2.49505224609375	0		1.7442655029296874	-0.46730569458007815	0		3.375181396484375	-0.5994478149414062	0		4.47808154296875	-0.3849999694824219	0		5.882046875	0.18619691467285157	0		-0.20834698486328124	5.9308603515625	0		
0.00891029167175293	0.0036022439002990725	0		0.5113766479492188	-2.383811767578125	0		-1.0167028198242187	0.4014460754394531	0		-0.7275760498046875	-2.48914990234375	0		1.741885986328125	-0.47133383178710936	0		3.40882568359375	-0.6016886596679687	0		4.4756884765625	-0.38986495971679686	0		5.89456396484375	0.16897959899902343	0		-0.23826220703125	5.90894873046875	0		
